<svg xmlns="http://www.w3.org/2000/svg" width="149" height="26" viewBox="0 0 149 26"><g fill="none" fill-rule="evenodd"><path fill="#27272A" fill-rule="nonzero" d="M15.8671875 3.28515625 15.8671875 1.33984375 18.1171875 1.33984375 18.1171875 7 15.8203125 7C15.2421875 5.8671875 14.4492188 4.984375 13.4414062 4.3515625 12.4335938 3.71875 11.328125 3.40234375 10.125 3.40234375 8.9609375 3.40234375 7.921875 3.70898438 7.0078125 4.32226562 6.09375 4.93554688 5.38085938 5.75585938 4.86914062 6.78320312 4.35742188 7.81054688 4.1015625 8.9140625 4.1015625 10.09375 4.1015625 11.3125 4.36914062 12.4375 4.90429688 13.46875 5.43945312 14.5 6.17578125 15.3242188 7.11328125 15.9414062 8.05078125 16.5585938 9.09375 16.8671875 10.2421875 16.8671875 11.65625 16.8671875 12.90625 16.4355469 13.9921875 15.5722656 15.078125 14.7089844 15.8710938 13.484375 16.3710938 11.8984375L18.6210938 13.09375C18.0117188 15.0625 16.9355469 16.5878906 15.3925781 17.6699219 13.8496094 18.7519531 12.0390625 19.2929688 9.9609375 19.2929688 8.25 19.2929688 6.73046875 18.8847656 5.40234375 18.0683594 4.07421875 17.2519531 3.04101562 16.1542969 2.30273438 14.7753906 1.56445312 13.3964844 1.1953125 11.8828125 1.1953125 10.234375 1.1953125 8.4453125 1.57226562 6.8515625 2.32617188 5.453125 3.08007812 4.0546875 4.12109375 2.97070312 5.44921875 2.20117188 6.77734375 1.43164062 8.296875 1.046875 10.0078125 1.046875 11.15625 1.046875 12.2148438 1.23828125 13.1835938 1.62109375 14.1523438 2.00390625 15.046875 2.55859375 15.8671875 3.28515625ZM24.9835938 14.0546875 24.9835938 16.84375 27.6671875 16.84375 27.6671875 19 20.1085938 19 20.1085938 16.84375 22.58125 16.84375 22.58125 8.8515625 20.1085938 8.8515625 20.1085938 6.68359375 24.503125 6.68359375 24.503125 9.47265625C24.9953125 8.37109375 25.6066406 7.60351562 26.3371094 7.16992188 27.0675781 6.73632812 28.1125 6.51953125 29.471875 6.51953125L30.0226563 6.51953125 30.0226563 8.96875 29.4953125 8.96875C28.1828125 8.96875 27.20625 9.140625 26.565625 9.484375 25.925 9.828125 25.5011719 10.3476562 25.2941406 11.0429688 25.0871094 11.7382812 24.9835938 12.7421875 24.9835938 14.0546875ZM42.7367188 13.4570312 32.4125 13.4570312C32.5609375 14.6367188 33.0179688 15.5683594 33.7835938 16.2519531 34.5492188 16.9355469 35.4867188 17.2773438 36.5960938 17.2773438 37.4085938 17.2773438 38.1625 17.109375 38.8578125 16.7734375 39.553125 16.4375 40.1351563 15.921875 40.6039063 15.2265625L42.7367188 16.1875C42.0648438 17.234375 41.1839844 18.0253906 40.0941406 18.5605469 39.0042969 19.0957031 37.81875 19.3632812 36.5375 19.3632812 35.209375 19.3632812 34.0296875 19.0859375 32.9984375 18.53125 31.9671875 17.9765625 31.1644531 17.203125 30.5902344 16.2109375 30.0160156 15.21875 29.7289063 14.1015625 29.7289063 12.859375 29.7289063 11.625 30.0121094 10.5117188 30.5785156 9.51953125 31.1449219 8.52734375 31.9203125 7.75195312 32.9046875 7.19335938 33.8890625 6.63476562 34.975 6.35546875 36.1625 6.35546875 37.459375 6.35546875 38.5902344 6.64257812 39.5550781 7.21679688 40.5199219 7.79101562 41.2796875 8.61132812 41.834375 9.67773438 42.3890625 10.7441406 42.6898438 12.0039062 42.7367188 13.4570312ZM36.209375 8.37109375C35.2953125 8.37109375 34.4945313 8.67773438 33.8070313 9.29101562 33.1195313 9.90429688 32.678125 10.7148438 32.4828125 11.7226562L40.19375 11.7226562C39.9671875 10.7148438 39.4867188 9.90429688 38.7523438 9.29101562 38.0179688 8.67773438 37.1703125 8.37109375 36.209375 8.37109375Z"/><polygon fill="#27272A" fill-rule="nonzero" points="47.412 8.852 49.744 16.27 52.087 8.852 50.775 8.852 50.775 6.684 56.693 6.684 56.693 8.852 55.334 8.852 57.712 16.27 60.08 8.852 58.38 8.852 58.38 6.684 63.923 6.684 63.923 8.852 62.142 8.852 58.861 19.211 56.576 19.211 53.752 10.316 50.892 19.211 48.63 19.211 45.326 8.852 43.837 8.852 43.837 6.684 49.017 6.684 49.017 8.852"/><path fill="#27272A" fill-rule="nonzero" d="M88.1796875 9.90625C88.1796875 12.9296875 87.2675781 15.2011719 85.4433594 16.7207031 83.6191406 18.2402344 80.90625 19 77.3046875 19L70.7070312 19 70.7070312 16.796875 73.0742188 16.796875 73.0742188 3.54296875 70.7070312 3.54296875 70.7070312 1.33984375 77.421875 1.33984375C81.0390625 1.33984375 83.7363281 2.0234375 85.5136719 3.390625 87.2910156 4.7578125 88.1796875 6.9296875 88.1796875 9.90625ZM85.2734375 10.0234375C85.2734375 8.5234375 85.0097656 7.30078125 84.4824219 6.35546875 83.9550781 5.41015625 83.1191406 4.70507812 81.9746094 4.24023438 80.8300781 3.77539062 79.3203125 3.54296875 77.4453125 3.54296875L75.7460938 3.54296875 75.7460938 16.796875 77.421875 16.796875C80.140625 16.796875 82.1289062 16.2519531 83.3867188 15.1621094 84.6445312 14.0722656 85.2734375 12.359375 85.2734375 10.0234375ZM94.2609375 2.53515625C94.2609375 2.93359375 94.1164063 3.27734375 93.8273438 3.56640625 93.5382813 3.85546875 93.1945313 4 92.7960938 4 92.3976563 4 92.0578125 3.85546875 91.7765625 3.56640625 91.4953125 3.27734375 91.3546875 2.93359375 91.3546875 2.53515625 91.3546875 2.13671875 91.4953125 1.79296875 91.7765625 1.50390625 92.0578125 1.21484375 92.3976563 1.0703125 92.7960938 1.0703125 93.2101563 1.0703125 93.5578125 1.2109375 93.8390625 1.4921875 94.1203125 1.7734375 94.2609375 2.12109375 94.2609375 2.53515625ZM95.9953125 16.84375 95.9953125 19 89.7726563 19 89.7726563 16.84375 91.6945313 16.84375 91.6945313 8.8515625 89.7726563 8.8515625 89.7726563 6.68359375 94.1203125 6.68359375 94.1203125 16.84375 95.9953125 16.84375ZM107.678125 8.46484375 107.678125 6.68359375 112.307031 6.68359375 112.307031 8.8515625 110.080469 8.8515625 110.080469 18.0859375C110.080469 20.234375 109.539453 21.8925781 108.457422 23.0605469 107.375391 24.2285156 105.795313 24.8125 103.717188 24.8125 101.748438 24.8125 100.06875 24.2578125 98.678125 23.1484375L100.236719 21.4023438C100.799219 21.8164062 101.363672 22.1269531 101.930078 22.3339844 102.496484 22.5410156 103.115625 22.6445312 103.7875 22.6445312 105.00625 22.6445312 105.959375 22.265625 106.646875 21.5078125 107.334375 20.75 107.678125 19.7460938 107.678125 18.4960938L107.678125 17.3476562C107.146875 17.9726562 106.473047 18.4648438 105.656641 18.8242188 104.840234 19.1835938 104.025781 19.3632812 103.213281 19.3632812 102.072656 19.3632812 101.047266 19.0742188 100.137109 18.4960938 99.2269531 17.9179688 98.5160156 17.1503906 98.0042969 16.1933594 97.4925781 15.2363281 97.2367188 14.1875 97.2367188 13.046875 97.2367188 11.8828125 97.5042969 10.8007812 98.0394531 9.80078125 98.5746094 8.80078125 99.3070313 8.00390625 100.236719 7.41015625 101.166406 6.81640625 102.197656 6.51953125 103.330469 6.51953125 104.142969 6.51953125 104.902734 6.6796875 105.609766 7 106.316797 7.3203125 107.00625 7.80859375 107.678125 8.46484375ZM103.670313 17.1953125C104.435938 17.1953125 105.127344 17.0039062 105.744531 16.6210938 106.361719 16.2382812 106.842188 15.7226562 107.185938 15.0742188 107.529688 14.4257812 107.701563 13.7265625 107.701563 12.9765625 107.701563 12.2734375 107.529688 11.5976562 107.185938 10.9492188 106.842188 10.3007812 106.365625 9.77734375 105.75625 9.37890625 105.146875 8.98046875 104.467188 8.78125 103.717188 8.78125 102.982813 8.78125 102.314844 8.97265625 101.713281 9.35546875 101.111719 9.73828125 100.642969 10.2539062 100.307031 10.9023438 99.9710938 11.5507812 99.803125 12.25 99.803125 13 99.803125 13.765625 99.9632813 14.46875 100.283594 15.109375 100.603906 15.75 101.058984 16.2578125 101.648828 16.6328125 102.238672 17.0078125 102.9125 17.1953125 103.670313 17.1953125ZM117.485938 2.53515625C117.485938 2.93359375 117.341406 3.27734375 117.052344 3.56640625 116.763281 3.85546875 116.419531 4 116.021094 4 115.622656 4 115.282813 3.85546875 115.001563 3.56640625 114.720313 3.27734375 114.579688 2.93359375 114.579688 2.53515625 114.579688 2.13671875 114.720313 1.79296875 115.001563 1.50390625 115.282813 1.21484375 115.622656 1.0703125 116.021094 1.0703125 116.435156 1.0703125 116.782813 1.2109375 117.064063 1.4921875 117.345313 1.7734375 117.485938 2.12109375 117.485938 2.53515625ZM119.220313 16.84375 119.220313 19 112.997656 19 112.997656 16.84375 114.919531 16.84375 114.919531 8.8515625 112.997656 8.8515625 112.997656 6.68359375 117.345313 6.68359375 117.345313 16.84375 119.220313 16.84375ZM126.625781 6.68359375 126.625781 8.8515625 124.375781 8.8515625 124.375781 15.3085938C124.375781 15.9804688 124.448047 16.4160156 124.592578 16.6152344 124.737109 16.8144531 124.985156 16.9140625 125.336719 16.9140625 125.766406 16.9140625 126.196094 16.8398438 126.625781 16.6914062L126.625781 18.8828125C125.875781 19.1015625 125.270313 19.2109375 124.809375 19.2109375 123.79375 19.2109375 123.063281 18.9550781 122.617969 18.4433594 122.172656 17.9316406 121.95 17.0546875 121.95 15.8125L121.95 8.8515625 120.344531 8.8515625 120.344531 6.68359375 121.95 6.68359375 121.95 4.8203125 124.375781 2.60546875 124.375781 6.68359375 126.625781 6.68359375ZM138.578125 11.03125 138.578125 16.84375 140.640625 16.84375 140.640625 19 136.445312 19 136.445312 17.4882812C135.273438 18.6367188 133.96875 19.2109375 132.53125 19.2109375 131.773438 19.2109375 131.080078 19.0351562 130.451172 18.6835938 129.822266 18.3320312 129.318359 17.8613281 128.939453 17.2714844 128.560547 16.6816406 128.371094 16.0273438 128.371094 15.3085938 128.371094 14.5351562 128.580078 13.8457031 128.998047 13.2402344 129.416016 12.6347656 129.980469 12.1679688 130.691406 11.8398438 131.402344 11.5117188 132.117188 11.3476562 132.835938 11.3476562 134.039062 11.3476562 135.160156 11.6992188 136.199219 12.4023438L136.199219 11.078125C136.199219 10.1171875 135.996094 9.4296875 135.589844 9.015625 135.183594 8.6015625 134.515625 8.39453125 133.585938 8.39453125 132.929688 8.39453125 132.380859 8.51367188 131.939453 8.75195312 131.498047 8.99023438 131.132812 9.3515625 130.84375 9.8359375L128.523438 9.26171875C129.046875 8.28515625 129.753906 7.55664062 130.644531 7.07617188 131.535156 6.59570312 132.59375 6.35546875 133.820312 6.35546875 135.46875 6.35546875 136.673828 6.73046875 137.435547 7.48046875 138.197266 8.23046875 138.578125 9.4140625 138.578125 11.03125ZM132.859375 17.3476562C134.046875 17.3476562 135.160156 16.8515625 136.199219 15.859375L136.199219 14.4179688C135.144531 13.5976562 134.089844 13.1875 133.035156 13.1875 132.394531 13.1875 131.841797 13.3886719 131.376953 13.7910156 130.912109 14.1933594 130.679688 14.6992188 130.679688 15.3085938 130.679688 15.8945312 130.882812 16.3808594 131.289062 16.7675781 131.695312 17.1542969 132.21875 17.3476562 132.859375 17.3476562Z"/><polygon fill="#27272A" fill-rule="nonzero" points="147.835 16.844 147.835 19 141.355 19 141.355 16.844 143.534 16.844 143.534 3.473 141.355 3.473 141.355 1.34 145.96 1.34 145.96 16.844"/></g></svg>